<?xml version="1.0" encoding="utf-8"?>
<!-- Generator: Adobe Illustrator 19.0.0, SVG Export Plug-In . SVG Version: 6.00 Build 0)  -->
<svg version="1.1" id="Layer_1" xmlns="http://www.w3.org/2000/svg" xmlns:xlink="http://www.w3.org/1999/xlink" x="0px" y="0px"
	 viewBox="0 0 500 500" style="enable-background:new 0 0 500 500;" xml:space="preserve">
<style type="text/css">
	.st0{fill:#1B3F8B;}
	.st1{fill:#F90000;}
</style>
<g>
	<path class="st0" d="M262.2,254.1h-76.9c-11.2,0-22.9-8.3-26.7-18.9l-15-42.3c-2.1-6-1.5-12.2,1.9-16.9c3.3-4.7,8.9-7.4,15.3-7.4
		h106c4.5,0,8.1,3.6,8.1,8.1c0,4.5-3.6,8.1-8.1,8.1h-106c-1.3,0-1.9,0.3-2,0.5c-0.1,0.2-0.2,0.9,0.2,2.1l15,42.3c1.5,4.1,7,8,11.3,8
		h76.9c4.5,0,10.3-3.9,11.9-8.1l31.1-78.8c4.1-10.3,15.9-18.4,27-18.4h22.3c4.5,0,8.1,3.6,8.1,8.1c0,4.5-3.6,8.1-8.1,8.1h-22.3
		c-4.5,0-10.3,3.9-11.9,8.1l-31.1,78.8C285.2,246,273.3,254.1,262.2,254.1z"/>
	<circle class="st0" cx="283.1" cy="282.1" r="18.1"/>
	<circle class="st0" cx="167.1" cy="282.1" r="18.1"/>
	<path class="st0" d="M257.5,204.5h-71.9c-2.2,0-4.1-1.8-4.1-4.1c0-2.2,1.8-4.1,4.1-4.1h71.9c2.2,0,4.1,1.8,4.1,4.1
		C261.6,202.7,259.8,204.5,257.5,204.5z"/>
	<path class="st0" d="M250.2,224.8h-59.1c-2.2,0-4.1-1.8-4.1-4.1c0-2.2,1.8-4.1,4.1-4.1h59.1c2.2,0,4.1,1.8,4.1,4.1
		C254.3,223,252.4,224.8,250.2,224.8z"/>
	<path class="st1" d="M95.2,307.3v6.3H78.6c-0.5,0.1-0.9,0.2-1.3,0.4c-0.4,0.2-0.8,0.4-1.2,0.7c-0.3,0.2-0.6,0.5-0.9,0.8
		c-0.3,0.3-0.5,0.7-0.7,1c-0.2,0.3-0.3,0.7-0.4,1.1c-0.1,0.4-0.1,0.8-0.1,1.2c0,0.4,0.1,0.8,0.3,1.2c0.1,0.4,0.3,0.7,0.5,1.1
		c0.3,0.5,0.7,1,1.1,1.4c0.4,0.4,0.9,0.7,1.4,1L91,331c1.3,0.9,2.5,1.9,3.5,3.1c1,1.2,1.8,2.5,2.4,4c0.1,0.5,0.2,1.1,0.2,1.6
		c0.1,0.5,0.1,1.1,0.1,1.7c0,0.1,0,0.3,0,0.4c0,0.1,0,0.2,0,0.4c0,0.1,0,0.3,0,0.4c0,0.1,0,0.2,0,0.4c-0.1,1.3-0.4,2.5-0.9,3.6
		c-0.5,1.2-1.1,2.2-1.9,3.2c-0.8,1-1.8,1.7-2.9,2.3c-1.1,0.6-2.3,1-3.6,1.2c-0.1,0-0.2,0.1-0.3,0.1c-0.1,0-0.2,0-0.4,0h-0.1h-0.1
		h-0.1h-0.1H67.5v-5.9h18.4c0.5,0,1.1-0.2,1.6-0.4c0.5-0.2,1-0.5,1.5-0.8c0.4-0.2,0.7-0.5,0.9-0.8c0.2-0.3,0.5-0.7,0.6-1
		c0.1-0.2,0.2-0.5,0.2-0.7c0.1-0.2,0.1-0.5,0.1-0.7c0-0.2,0.1-0.5,0.1-0.7c0-0.2,0-0.5,0-0.7c0-0.5-0.1-0.9-0.2-1.3
		c-0.1-0.4-0.3-0.8-0.5-1.2c-0.3-0.5-0.7-1-1.2-1.4c-0.5-0.5-0.9-0.8-1.4-1.2c-2.5-1.6-5-3.1-7.6-4.6c-2.6-1.5-5.2-2.9-7.9-4.3
		c-1-0.9-1.9-1.9-2.6-3c-0.7-1.1-1.3-2.3-1.7-3.6c0-0.3-0.1-0.6-0.1-0.9c0-0.3,0-0.6,0-0.9c0-0.2,0-0.4,0-0.5c0-0.2,0-0.3,0.1-0.5
		c0-0.1,0-0.3,0-0.4c0-0.2,0.1-0.3,0.1-0.5c0.1-0.6,0.2-1.3,0.4-1.9c0.2-0.6,0.4-1.2,0.6-1.8c0.8-1.2,1.7-2.2,2.7-3.1
		c1-0.9,2.2-1.6,3.4-2.1c0.7-0.3,1.4-0.5,2.1-0.6c0.7-0.2,1.5-0.3,2.2-0.3l0.8-0.1H95.2z"/>
	<path class="st1" d="M109,307.8v17.3c1-1,2.2-1.7,3.5-2.4c1.3-0.6,2.6-1.1,4.1-1.3c0.2,0,0.4-0.1,0.5-0.1c0.2,0,0.3,0,0.5,0
		c0.5,0,0.9,0,1.3,0.1c0.4,0.1,0.9,0.1,1.3,0.2c1.3,0.3,2.5,0.8,3.6,1.5c1.1,0.7,2.1,1.5,2.9,2.5c0.9,1.2,1.6,2.5,2.1,3.9
		c0.5,1.4,0.7,2.8,0.6,4.3v19.4h-5.8v-20.9c0-0.5-0.2-1-0.4-1.5c-0.2-0.5-0.5-0.9-0.9-1.4c-0.6-0.9-1.4-1.6-2.3-2.1
		c-0.9-0.5-1.9-0.8-3-0.8c-0.6,0-1.2,0.1-1.7,0.2c-0.6,0.1-1.1,0.3-1.6,0.6c-0.6,0.2-1.1,0.5-1.6,0.8c-0.5,0.4-0.9,0.8-1.3,1.2
		c-0.6,1-1.1,2-1.4,3.1c-0.3,1.1-0.5,2.2-0.5,3.4v17.4h-5.9v-45.5H109z"/>
	<path class="st1" d="M153,321.5c0.8,0,1.6,0.1,2.4,0.2c0.8,0.1,1.6,0.3,2.3,0.6c1.1,0.4,2.2,0.9,3.2,1.6c1,0.6,2,1.4,2.8,2.2
		c0.9,0.9,1.6,1.8,2.3,2.9c0.7,1,1.2,2.2,1.5,3.3c0.4,1.1,0.6,2.3,0.7,3.5c0.1,1.2,0.1,2.5,0,3.7c-0.1,1.2-0.3,2.3-0.7,3.5
		c-0.4,1.1-0.9,2.2-1.6,3.3c-0.6,1-1.4,2-2.2,2.9c-0.9,0.9-1.8,1.7-2.9,2.4c-1,0.6-2.1,1.1-3.2,1.4c-1.2,0.4-2.3,0.6-3.5,0.7
		c-0.2,0-0.4,0.1-0.6,0.1c-0.2,0-0.4,0-0.6,0c-0.2,0-0.4,0.1-0.6,0.1c-0.2,0-0.4,0-0.6,0c-0.8,0-1.5,0-2.3-0.1
		c-0.7-0.1-1.5-0.2-2.3-0.4c-1.1-0.4-2.2-0.9-3.3-1.5c-1.1-0.6-2.1-1.3-3-2.1c-0.9-0.9-1.6-1.8-2.4-2.8c-0.7-1-1.3-2.1-1.7-3.2
		c-0.3-0.9-0.6-1.8-0.7-2.7c-0.2-0.9-0.3-1.8-0.3-2.8c0-0.1,0-0.3,0-0.4c0-0.1,0-0.3,0-0.4c0-0.1,0-0.2,0-0.3c0-0.1,0-0.3,0-0.4
		c0.1-1.2,0.3-2.4,0.7-3.6c0.4-1.2,0.9-2.3,1.5-3.3c0.6-1,1.4-2,2.1-2.9c0.8-0.9,1.7-1.7,2.7-2.4c1-0.7,2.1-1.2,3.3-1.7
		c1.1-0.4,2.3-0.7,3.5-0.9c0.6-0.1,1.2-0.2,1.8-0.2C151.8,321.5,152.4,321.5,153,321.5L153,321.5z M153.8,327c-0.2,0-0.4,0-0.5,0
		c-0.2,0-0.3,0-0.4,0c-0.2,0-0.4-0.1-0.5-0.1c-0.2,0-0.3,0-0.5,0c-0.2,0-0.5,0-0.7,0c-0.2,0-0.5,0-0.7,0c-0.2,0-0.5,0.1-0.7,0.1
		c-0.2,0-0.5,0.1-0.7,0.2c-0.9,0.2-1.7,0.6-2.5,1.1c-0.8,0.5-1.5,1.1-2.1,1.8c-0.5,0.6-1,1.2-1.4,1.8c-0.4,0.6-0.7,1.3-1,2.1
		c-0.2,0.8-0.3,1.6-0.4,2.4c-0.1,0.8-0.1,1.6-0.1,2.5c0,0.8,0.2,1.5,0.4,2.3c0.2,0.8,0.5,1.5,0.9,2.2c0.4,0.7,0.8,1.4,1.4,1.9
		c0.5,0.6,1.1,1.1,1.8,1.6c0.7,0.5,1.4,0.8,2.1,1.1c0.7,0.3,1.5,0.5,2.3,0.6c0.3,0,0.5,0.1,0.8,0.1c0.3,0,0.5,0,0.7,0
		c0.5,0,1.1,0,1.6-0.1c0.5-0.1,1.1-0.2,1.6-0.4c0.8-0.2,1.5-0.5,2.1-1c0.7-0.4,1.3-0.9,1.9-1.5c0.6-0.5,1.1-1.1,1.6-1.8
		c0.5-0.7,0.8-1.4,1.1-2.1c0.2-0.5,0.4-1.1,0.5-1.6c0.1-0.5,0.1-1.1,0.1-1.7c0-0.2,0-0.5,0-0.7c0-0.2,0-0.5-0.1-0.7
		c0-0.8,0-1.6-0.2-2.4c-0.2-0.8-0.5-1.5-0.8-2.2c-0.4-0.8-0.8-1.5-1.4-2.1c-0.5-0.6-1.1-1.1-1.8-1.6c-0.6-0.5-1.3-0.9-2.1-1.2
		C155.4,327.4,154.6,327.2,153.8,327L153.8,327z"/>
	<path class="st1" d="M189.6,321.6c1,0,2,0.1,3,0.2c1,0.1,1.9,0.3,2.9,0.6c1.9,0.7,3.6,1.7,5.1,3c1.5,1.3,2.8,2.8,3.8,4.5
		c0.4,0.9,0.7,1.8,1,2.7c0.3,0.9,0.5,1.9,0.5,2.9c0,0.2,0,0.4,0,0.5c0,0.2,0,0.4,0,0.5c0,0.2,0.1,0.4,0.1,0.5c0,0.2,0,0.4,0,0.5
		c0,0.7,0,1.4-0.1,2c-0.1,0.7-0.2,1.3-0.4,1.9c-0.2,1-0.5,2-1,2.9c-0.4,1-0.9,1.9-1.5,2.7c-0.5,0.9-1.1,1.6-1.8,2.4
		c-0.7,0.7-1.4,1.4-2.2,1.9c-0.8,0.5-1.7,1-2.6,1.3c-0.9,0.3-1.9,0.6-2.8,0.6c-0.3,0.1-0.6,0.1-0.9,0.2c-0.3,0-0.6,0.1-0.9,0.1
		c-0.3,0-0.6,0.1-0.9,0.1c-0.3,0-0.6,0-0.9,0c-0.2,0-0.4,0-0.6,0c-0.2,0-0.4,0-0.6,0c-0.2,0-0.4,0-0.6,0c-0.2,0-0.4-0.1-0.6-0.1
		c-1-0.1-2-0.3-3-0.7c-1-0.4-1.8-0.9-2.6-1.6v-5.8c0.7,0.7,1.5,1.2,2.4,1.7c0.9,0.4,1.8,0.8,2.7,1c0.5,0.1,0.9,0.2,1.3,0.2
		c0.4,0.1,0.9,0.1,1.3,0c0.2,0,0.4,0,0.6,0c0.2,0,0.4,0,0.6-0.1c0.2,0,0.4,0,0.6-0.1c0.2,0,0.4-0.1,0.6-0.1c0.8-0.2,1.5-0.4,2.1-0.8
		c0.7-0.3,1.3-0.7,1.9-1.2c1.3-1,2.2-2.1,2.9-3.6c0.7-1.4,1-2.9,1-4.5c0.1-1,0.1-2-0.1-2.9c-0.1-1-0.4-1.9-0.7-2.8
		c-0.5-0.7-0.9-1.4-1.5-2.1c-0.5-0.7-1.1-1.3-1.7-1.9c-0.6-0.4-1.2-0.8-1.8-1.1c-0.6-0.3-1.3-0.5-2-0.6c-0.5-0.1-0.9-0.2-1.3-0.2
		c-0.4-0.1-0.9-0.1-1.3-0.1c-0.1,0-0.3,0-0.4,0c-0.1,0-0.3,0-0.3,0.1c-0.1,0-0.3,0-0.4,0c-0.1,0-0.3,0-0.4,0c-1.7,0.3-3.2,1-4.5,2
		c-1.3,1-2.3,2.4-3,4c-0.3,1-0.6,2-0.7,3.1c-0.2,1-0.3,2.1-0.3,3.2v28.6h-5.6v-31.2c0-1,0.2-1.9,0.4-2.9c0.2-1,0.5-1.9,1-2.8
		c0.5-0.9,1-1.8,1.5-2.6c0.5-0.8,1.2-1.5,1.9-2.2c0.7-0.7,1.4-1.3,2.3-1.8c0.8-0.5,1.7-1,2.6-1.4c0.9-0.4,1.9-0.6,2.8-0.8
		C187.6,321.7,188.6,321.7,189.6,321.6L189.6,321.6z"/>
	<path class="st1" d="M241.7,308h21.1v5.5h-18.6l-0.7,0.6l0.3,1l20,25.8c0.5-0.9,1-1.9,1.3-2.9c0.3-1,0.4-2.1,0.4-3.2
		c0-0.3,0-0.5,0-0.8c0-0.3-0.1-0.5-0.1-0.8c-0.1-0.7-0.3-1.4-0.6-2.1c-0.3-0.7-0.6-1.3-1-1.9c-0.5-0.6-0.9-1.3-1.4-1.9
		c-0.5-0.6-1-1.2-1.5-1.8l4.8-3.6c0.5,0.5,0.9,1,1.3,1.5c0.4,0.5,0.8,1.1,1.2,1.7c0.5,0.8,1,1.6,1.4,2.5c0.4,0.9,0.7,1.7,1,2.7
		c0.3,1,0.5,1.9,0.6,2.9c0.1,1,0.2,2,0.1,3c0,1.3-0.2,2.5-0.5,3.8c-0.3,1.2-0.7,2.5-1.2,3.6c-0.2,0.5-0.5,1.1-0.7,1.6
		c-0.3,0.5-0.6,1-1,1.5l5.2,6.8h-7.1l-2.2-2.7c-1,0.6-2.1,1.2-3.2,1.6c-1.1,0.5-2.2,0.8-3.3,1.1c-0.4,0.1-0.8,0.2-1.2,0.2
		c-0.4,0.1-0.8,0.1-1.2,0.1c-0.5,0-0.9,0.1-1.3,0.1c-0.4,0-0.8,0-1.2,0c-0.7,0-1.5,0-2.2-0.1c-0.7-0.1-1.5-0.1-2.2-0.2
		c-1-0.1-2.1-0.4-3.1-0.7c-1-0.3-2-0.8-3-1.3c-0.7-0.4-1.4-0.8-2.1-1.3c-0.7-0.5-1.3-1.1-1.9-1.7c-0.7-0.8-1.4-1.6-1.9-2.5
		c-0.6-0.9-1.1-1.7-1.5-2.7c-0.4-0.8-0.7-1.6-0.9-2.4c-0.3-0.8-0.4-1.6-0.6-2.5c0-1.2-0.1-2.4-0.1-3.5c0-1.2,0-2.3,0.1-3.4
		c0.2-1.1,0.6-2.2,1-3.3c0.5-1,1-2,1.6-3c0.7-1,1.4-1.9,2.2-2.7c0.8-0.8,1.7-1.6,2.7-2.2l-2.3-3.2c-0.3-0.5-0.5-1.1-0.6-1.7
		c-0.2-0.6-0.3-1.2-0.4-1.8c0-0.5,0.1-1,0.2-1.4c0.1-0.4,0.3-0.9,0.5-1.3c0.4-0.8,1-1.4,1.6-1.9C240.1,308.6,240.9,308.2,241.7,308
		L241.7,308z M244.1,325.3l-0.1,0.1h-0.1h-0.2l-0.2,0.1c-0.1,0-0.3,0-0.4,0.1c-0.1,0-0.2,0.1-0.3,0.2c-0.5,0.6-1.1,1.2-1.5,1.9
		c-0.5,0.7-0.9,1.3-1.3,2c-0.4,0.7-0.7,1.5-0.9,2.2c-0.3,0.7-0.4,1.5-0.5,2.3c0,0.8,0,1.6,0.1,2.4c0.1,0.8,0.2,1.6,0.4,2.4
		c0.2,0.8,0.4,1.5,0.7,2.2c0.3,0.7,0.7,1.4,1.2,2c0.5,0.6,1,1.2,1.6,1.8c0.6,0.6,1.2,1.1,1.8,1.5c0.7,0.5,1.4,0.8,2.1,1.1
		c0.7,0.3,1.5,0.5,2.3,0.6c0.8,0.2,1.6,0.3,2.4,0.3c0.8,0,1.6,0,2.4,0c0.8-0.1,1.5-0.2,2.2-0.4c0.7-0.2,1.5-0.5,2.2-0.8
		c0.4-0.3,0.7-0.6,1.1-0.9c0.3-0.3,0.7-0.7,1-1l-14.9-19.3c-0.1-0.2-0.2-0.4-0.4-0.5C244.6,325.5,244.4,325.4,244.1,325.3
		L244.1,325.3z"/>
	<path class="st1" d="M325.3,307.3v6.3h-16.6c-0.5,0.1-0.9,0.2-1.3,0.4c-0.4,0.2-0.8,0.4-1.2,0.7c-0.3,0.2-0.6,0.5-0.9,0.8
		c-0.3,0.3-0.5,0.7-0.7,1c-0.2,0.3-0.3,0.7-0.4,1.1c-0.1,0.4-0.1,0.8-0.1,1.2c0,0.4,0.1,0.8,0.3,1.2c0.1,0.4,0.3,0.7,0.5,1.1
		c0.3,0.5,0.7,1,1.1,1.4c0.4,0.4,0.9,0.7,1.4,1l13.8,7.6c1.3,0.9,2.5,1.9,3.5,3.1c1,1.2,1.8,2.5,2.4,4c0.1,0.5,0.2,1.1,0.2,1.6
		c0.1,0.5,0.1,1.1,0.1,1.7c0,0.1,0,0.3,0,0.4c0,0.1,0,0.2,0,0.4c0,0.1,0,0.3,0,0.4c0,0.1,0,0.2,0,0.4c-0.1,1.3-0.4,2.5-0.9,3.6
		c-0.5,1.2-1.1,2.2-1.9,3.2c-0.8,1-1.8,1.7-2.9,2.3c-1.1,0.6-2.3,1-3.6,1.2c-0.1,0-0.2,0.1-0.3,0.1c-0.1,0-0.2,0-0.4,0h-0.1H317
		h-0.1h-0.1h-19.1v-5.9H316c0.5,0,1.1-0.2,1.6-0.4c0.5-0.2,1-0.5,1.5-0.8c0.4-0.2,0.7-0.5,0.9-0.8c0.2-0.3,0.5-0.7,0.6-1
		c0.1-0.2,0.2-0.5,0.2-0.7c0.1-0.2,0.1-0.5,0.1-0.7c0-0.2,0.1-0.5,0.1-0.7c0-0.2,0-0.5,0-0.7c0-0.5-0.1-0.9-0.2-1.3
		c-0.1-0.4-0.3-0.8-0.5-1.2c-0.3-0.5-0.7-1-1.2-1.4c-0.5-0.5-0.9-0.8-1.4-1.2c-2.5-1.6-5-3.1-7.6-4.6c-2.6-1.5-5.2-2.9-7.9-4.3
		c-1-0.9-1.9-1.9-2.6-3c-0.7-1.1-1.3-2.3-1.7-3.6c0-0.3-0.1-0.6-0.1-0.9c0-0.3,0-0.6,0-0.9c0-0.2,0-0.4,0-0.5c0-0.2,0-0.3,0.1-0.5
		c0-0.1,0-0.3,0-0.4c0-0.2,0.1-0.3,0.1-0.5c0.1-0.6,0.2-1.3,0.4-1.9c0.2-0.6,0.4-1.2,0.6-1.8c0.8-1.2,1.7-2.2,2.7-3.1
		c1-0.9,2.2-1.6,3.4-2.1c0.7-0.3,1.4-0.5,2.1-0.6c0.7-0.2,1.5-0.3,2.2-0.3l0.8-0.1H325.3z"/>
	<path class="st1" d="M348.8,321.6c0.2,0,0.4,0.1,0.6,0.1c0.2,0,0.4,0,0.6,0c1.1,0,2.3,0.2,3.4,0.5c1.1,0.3,2.2,0.8,3.2,1.4
		c0.6,0.2,1.1,0.5,1.6,0.9c0.5,0.3,1,0.7,1.4,1.2c1.2,1.1,2.1,2.4,2.9,3.8c0.7,1.4,1.2,2.9,1.4,4.5v19.4h-5.6v-18.1
		c0-0.6-0.2-1.3-0.4-2c-0.2-0.7-0.5-1.3-0.9-1.9c-0.7-1.2-1.6-2.2-2.7-2.9c-1.1-0.8-2.4-1.3-3.7-1.5c-0.3-0.1-0.7-0.1-1.1-0.2
		c-0.4,0-0.8,0-1.1,0c-0.1,0-0.3,0-0.4,0c-0.2,0-0.3,0-0.4,0.1c-0.1,0-0.3,0-0.4,0c-0.2,0-0.3,0-0.4,0c-1.4,0-2.7,0.4-4,1.1
		c-1.2,0.7-2.2,1.6-3,2.8c-0.6,1-1,2-1.4,3.1c-0.3,1.1-0.5,2.2-0.5,3.4c0,0.1,0,0.3,0,0.4c0,0.2,0,0.3,0,0.5c0,0.2,0,0.4,0,0.5
		c0,0.2,0.1,0.3,0.1,0.4c0,0.7,0.2,1.4,0.3,2c0.2,0.7,0.4,1.3,0.7,1.9c0.3,0.6,0.7,1.1,1.1,1.7c0.4,0.5,0.8,1,1.3,1.5
		c0.5,0.5,1,0.8,1.6,1.2c0.6,0.3,1.2,0.6,1.8,0.7c0.5,0.2,1,0.3,1.6,0.4c0.5,0.1,1.1,0.1,1.6,0.1c0.1,0,0.2,0,0.2,0l0.2-0.1
		c0.1,0,0.2,0,0.2,0h0.2c0.6,0,1.2-0.2,1.8-0.3c0.6-0.2,1.1-0.4,1.7-0.7c0.6-0.4,1.1-0.8,1.7-1.3c0.5-0.5,1-1,1.3-1.5v6.5
		c-1,0.8-2.2,1.4-3.4,1.8c-1.2,0.4-2.5,0.7-3.8,0.7c-0.3,0-0.5,0.1-0.8,0.1c-0.3,0-0.5,0-0.8,0c-0.5,0-1.1-0.1-1.6-0.2
		c-0.5-0.1-1-0.2-1.5-0.3c-0.9-0.2-1.7-0.5-2.5-0.9c-0.8-0.4-1.6-0.9-2.3-1.4c-0.6-0.5-1.2-1-1.8-1.6c-0.6-0.6-1.1-1.2-1.6-1.8
		c-0.5-0.7-1-1.4-1.4-2.1c-0.4-0.7-0.7-1.5-1-2.3c-0.3-0.9-0.5-1.8-0.6-2.8c-0.1-0.9-0.2-1.9-0.2-2.8c0-0.9,0.1-1.7,0.2-2.6
		c0.1-0.8,0.3-1.7,0.5-2.5c0.3-0.9,0.6-1.7,1-2.5c0.4-0.8,0.9-1.6,1.4-2.3c0.5-0.6,1-1.2,1.6-1.8c0.6-0.5,1.2-1,1.8-1.5
		c0.6-0.5,1.3-0.9,2.1-1.3c0.7-0.4,1.5-0.6,2.3-0.8c1-0.3,1.9-0.5,2.9-0.6C346.8,321.7,347.8,321.6,348.8,321.6L348.8,321.6z"/>
	<path class="st1" d="M367.2,321.8h5.7l9.3,24h0.4l8.9-24h6.1l-11.2,29.1c-0.2,0.5-0.4,0.9-0.7,1.3c-0.3,0.3-0.6,0.7-1,1
		c-0.3,0.2-0.7,0.3-1.1,0.4c-0.4,0.1-0.8,0.2-1.3,0.2c-0.4,0-0.8,0-1.2,0c-0.4-0.1-0.8-0.2-1.1-0.4c-0.4-0.2-0.7-0.4-1-0.7
		c-0.3-0.3-0.6-0.6-0.8-1l-10.5-27c-0.1-0.5-0.3-0.9-0.3-1.4C367.4,322.8,367.4,322.3,367.2,321.8L367.2,321.8z"/>
	<path class="st1" d="M414.5,321.2c0.4,0,0.7,0,1.1,0c0.4,0,0.7,0,1.1,0.1c0.7,0,1.5,0.1,2.2,0.2c0.7,0.1,1.5,0.3,2.1,0.5
		c1,0.3,2.1,0.7,3.1,1.3c1,0.5,1.9,1.1,2.8,1.8c1,0.9,1.8,1.8,2.6,2.8c0.7,1,1.4,2.1,1.9,3.3L410.6,343l-2.7-4.6l15.2-8.8
		c-0.4-0.5-0.9-0.9-1.3-1.3c-0.5-0.4-1-0.8-1.7-1.1c-0.6-0.3-1.3-0.5-2-0.7c-0.7-0.2-1.4-0.3-2.1-0.3c-0.7,0-1.4,0.1-2,0.2
		c-0.7,0.1-1.3,0.3-1.9,0.5c-1.4,0.5-2.6,1.2-3.7,2.3c-1,1.1-1.8,2.4-2.2,3.8c-0.1,0.3-0.2,0.6-0.2,1c-0.1,0.3-0.1,0.7-0.2,1
		c0,0.3-0.1,0.6-0.1,1c0,0.3,0,0.7,0,1c0,1,0.2,2.1,0.5,3c0.3,1,0.7,1.9,1.3,2.8c0.5,0.9,1.1,1.7,1.9,2.4c0.7,0.7,1.6,1.4,2.4,1.9
		c0.8,0.4,1.6,0.7,2.4,0.9c0.8,0.2,1.7,0.3,2.6,0.3c0.5,0,1,0,1.5-0.1c0.5,0,0.9-0.1,1.4-0.3c0.6-0.2,1.2-0.5,1.8-0.8
		c0.6-0.3,1.2-0.7,1.7-1c0.6-0.4,1.1-0.9,1.6-1.4c0.5-0.5,0.8-1.1,1.2-1.7c0.3-0.7,0.5-1.4,0.6-2.1c0.2-0.7,0.3-1.4,0.3-2.1l5.7,1.2
		c-0.1,1.2-0.3,2.3-0.7,3.3c-0.4,1-0.8,2-1.4,3c-0.6,1-1.3,1.8-2,2.6c-0.8,0.8-1.6,1.5-2.5,2.1c-1,0.6-1.9,1.2-3,1.6
		c-1,0.4-2.1,0.7-3.2,0.8c-0.3,0-0.5,0.1-0.8,0.1c-0.3,0-0.5,0.1-0.8,0.1c-0.3,0-0.6,0-0.9,0c-0.3,0-0.5,0-0.8,0
		c-0.5,0-1.1,0-1.6-0.1c-0.5,0-1.1-0.1-1.6-0.2c-1.1-0.1-2.2-0.4-3.2-0.8c-1-0.4-2-1-2.9-1.6c-1.7-1.4-3.1-3.1-4.2-4.9
		c-1.1-1.9-1.9-3.9-2.4-6c0-0.4-0.1-0.7-0.1-1.1c0-0.3,0-0.7,0-1c0-0.3,0-0.5,0-0.8c0-0.2,0-0.5,0.1-0.7c0-0.5,0-1,0.1-1.5
		c0.1-0.5,0.1-1,0.2-1.5c0.2-1.1,0.5-2.1,1-3.2c0.4-1,0.9-2,1.5-3c0.6-0.9,1.4-1.7,2.2-2.5c0.8-0.7,1.8-1.4,2.8-1.9
		c1-0.5,2-1,3.1-1.3C412.3,321.5,413.4,321.3,414.5,321.2L414.5,321.2z"/>
</g>
</svg>
